<svg width="17" height="16" viewBox="0 0 17 16" fill="none" xmlns="http://www.w3.org/2000/svg">
<path d="M8.2801 0.048584C3.96881 0.048584 0.461288 3.5561 0.461288 7.86739C0.461288 12.1787 3.96881 15.6862 8.2801 15.6862C12.5914 15.6862 16.0989 12.1787 16.0989 7.86739C16.0989 3.5561 12.5914 0.048584 8.2801 0.048584ZM6.71712 11.3178L4.36714 8.97291C4.06161 8.66805 4.061 8.17326 4.36576 7.86763C4.67071 7.56182 5.16587 7.56125 5.47152 7.86637L6.71555 9.10824L10.302 5.52175C10.6073 5.21645 11.1023 5.21645 11.4076 5.52175C11.7129 5.82705 11.7129 6.32203 11.4076 6.62733L6.71712 11.3178Z" fill="#2FD3C7"/>
</svg>
